<svg viewBox="0 0 100 114" fill="none" xmlns="http://www.w3.org/2000/svg">
<g clip-path="url(#clip0_17_584)">
<path d="M99.9941 33.8475C99.9932 31.9578 99.5892 30.288 98.7717 28.8546C97.969 27.4453 96.7665 26.2641 95.154 25.3302C81.841 17.654 68.5155 10.0013 55.2072 2.31747C51.6194 0.246094 48.1408 0.321541 44.5794 2.42278C39.2807 5.54786 12.7511 20.7471 4.84576 25.3259C1.59012 27.2106 0.00589377 30.0949 0.00505182 33.8441C0 49.2811 0.00505182 64.718 0 80.1556C0.000721687 82.004 0.387788 83.6416 1.16913 85.0531C1.97237 86.5048 3.19153 87.7187 4.84142 88.6739C12.7473 93.2526 39.2801 108.451 44.5778 111.577C48.1408 113.679 51.6193 113.754 55.2085 111.682C68.5171 103.997 81.8435 96.3451 95.1583 88.6692C96.8081 87.7144 98.0272 86.4999 98.8305 85.0491C99.6108 83.6375 99.9985 82 99.9991 80.1513C99.9991 80.1513 99.9991 49.2851 99.9941 33.8475Z" fill="#973497"/>
<path d="M50.1525 56.8494L1.16919 85.0531C1.97243 86.5048 3.19158 87.7187 4.84148 88.6739C12.7473 93.2526 39.2801 108.451 44.5779 111.577C48.1408 113.679 51.6194 113.754 55.2085 111.682C68.5171 103.997 81.8436 96.3451 95.1583 88.6692C96.8082 87.7144 98.0272 86.4999 98.8306 85.0491L50.1525 56.8494Z" fill="#602276"/>
<path d="M35.6442 65.2033C38.4946 70.1793 43.853 73.5356 49.9997 73.5356C56.1843 73.5356 61.5732 70.1368 64.4088 65.1076L50.1524 56.8492L35.6442 65.2033Z" fill="#602276"/>
<path d="M99.9942 33.8473C99.9933 31.9576 99.5893 30.2877 98.7718 28.8543L50.1525 56.8492L98.8306 85.0488C99.6108 83.6372 99.9985 81.9997 99.9991 80.151C99.9991 80.151 99.9991 49.2848 99.9942 33.8473Z" fill="#7B2487"/>
<path d="M64.4088 65.1079C61.5732 70.1372 56.1843 73.536 49.9997 73.536C43.853 73.536 38.4946 70.1797 35.6442 65.2037C34.2595 62.7856 33.4635 59.9863 33.4635 56.9998C33.4635 47.8672 40.8671 40.4639 49.9997 40.4639C56.1067 40.4639 61.4371 43.7783 64.3014 48.7035L78.7548 40.3804C73.0099 30.4636 62.2845 23.7919 49.9997 23.7919C31.6588 23.7919 16.7914 38.6598 16.7914 56.9998C16.7914 63.0165 18.392 68.6588 21.1895 73.5258C26.9199 83.495 37.6762 90.208 49.9997 90.208C62.3458 90.208 73.1189 83.4682 78.841 73.4695L64.4088 65.1079Z" fill="white"/>
<path d="M82.6724 65.0571H79.3878V49.1481H82.6724V65.0571Z" fill="white"/>
<path d="M89.9597 65.0571H86.6754V49.1481H89.9597V65.0571Z" fill="white"/>
<path d="M76.7191 55.1011V51.8165H92.6284V55.1011H76.7191Z" fill="white"/>
<path d="M76.7191 62.3887V59.1041H92.6284V62.3887H76.7191Z" fill="white"/>
</g>
<defs>
<clipPath id="clip0_17_584">
<rect width="100" height="112.391" fill="white" transform="translate(0 0.804688)"/>
</clipPath>
</defs>
</svg>
