<svg viewBox="0 0 100 136" fill="none" xmlns="http://www.w3.org/2000/svg">
<g clip-path="url(#clip0_17_603)">
<path d="M32.2476 104.903C32.2476 104.903 27.0919 107.902 35.9167 108.916C46.6076 110.136 52.0716 109.961 63.853 107.731C63.853 107.731 66.9505 109.673 71.2763 111.355C44.8654 122.675 11.5032 110.7 32.2476 104.903Z" fill="#5382A1"/>
<path d="M29.0204 90.1323C29.0204 90.1323 23.2378 94.4127 32.0691 95.3261C43.4895 96.5043 52.5084 96.6007 68.1145 93.5956C68.1145 93.5956 70.2731 95.784 73.6673 96.9807C41.7349 106.318 6.16801 97.7171 29.0204 90.1323Z" fill="#5382A1"/>
<path d="M56.2273 65.076C62.735 72.5684 54.5175 79.3106 54.5175 79.3106C54.5175 79.3106 71.0415 70.7804 63.4528 60.0986C56.3651 50.1371 50.9299 45.1877 80.3542 28.1226C80.3542 28.1226 34.1677 39.6578 56.2273 65.076Z" fill="#E76F00"/>
<path d="M91.1578 115.829C91.1578 115.829 94.9731 118.972 86.956 121.404C71.7113 126.022 23.5058 127.417 10.1145 121.588C5.30073 119.494 14.328 116.588 17.1676 115.978C20.1291 115.336 21.8215 115.455 21.8215 115.455C16.468 111.684 -12.7811 122.861 6.96436 126.061C60.8131 134.794 105.125 122.129 91.1578 115.829Z" fill="#5382A1"/>
<path d="M34.7269 74.8281C34.7269 74.8281 10.2065 80.6521 26.0436 82.767C32.7305 83.6623 46.0607 83.4597 58.4774 82.4194C68.6251 81.5634 78.8145 79.7434 78.8145 79.7434C78.8145 79.7434 75.2363 81.2757 72.6476 83.0434C47.7476 89.5921 -0.354586 86.5456 13.4934 79.847C25.2047 74.1859 34.7269 74.8281 34.7269 74.8281Z" fill="#5382A1"/>
<path d="M78.7134 99.4147C104.025 86.2617 92.3222 73.6217 84.1534 75.3246C82.1513 75.7413 81.2585 76.1024 81.2585 76.1024C81.2585 76.1024 82.0018 74.938 83.4214 74.434C99.5818 68.7526 112.01 91.1907 78.2047 100.078C78.2047 100.078 78.5963 99.7278 78.7134 99.4147Z" fill="#5382A1"/>
<path d="M63.4527 0.566895C63.4527 0.566895 77.4709 14.5898 50.1571 36.1531C28.2542 53.4505 45.1625 63.3131 50.148 74.5814C37.3629 63.0462 27.9804 52.8916 34.2749 43.4407C43.5138 29.5676 69.1087 22.8414 63.4527 0.566895Z" fill="#E76F00"/>
<path d="M37.2142 135.057C61.5106 136.612 98.8204 134.194 99.704 122.697C99.704 122.697 98.0055 127.055 79.6244 130.517C58.8869 134.419 33.3102 133.963 18.1404 131.462C18.1407 131.462 21.2458 134.033 37.2142 135.057Z" fill="#5382A1"/>
</g>
<defs>
<clipPath id="clip0_17_603">
<rect width="100" height="135.156" fill="white" transform="translate(0 0.421875)"/>
</clipPath>
</defs>
</svg>
