<svg viewBox="0 0 100 100" fill="none" xmlns="http://www.w3.org/2000/svg">
<g clip-path="url(#clip0_17_547)">
<path d="M0 0H100V100H0V0Z" fill="#F7DF1E"/>
<path d="M26.2936 83.5673L33.9463 78.936C35.4227 81.5536 36.7657 83.7684 39.9871 83.7684C43.075 83.7684 45.0219 82.5605 45.0219 77.8621V45.9097H54.4193V77.9949C54.4193 87.7282 48.7139 92.1586 40.39 92.1586C32.8723 92.1586 28.5085 88.2651 26.2935 83.5665" fill="black"/>
<path d="M59.5238 82.5605L67.1756 78.1302C69.1898 81.4197 71.8078 83.8361 76.4392 83.8361C80.333 83.8361 82.816 81.8892 82.816 79.2041C82.816 75.9821 80.2654 74.8408 75.9692 72.9619L73.6205 71.9543C66.8403 69.0684 62.3427 65.4437 62.3427 57.7911C62.3427 50.7429 67.7127 45.3726 76.1038 45.3726C82.0781 45.3726 86.3741 47.4537 89.4616 52.891L82.1448 57.5895C80.5336 54.7034 78.7889 53.5624 76.104 53.5624C73.3517 53.5624 71.6063 55.3076 71.6063 57.5895C71.6063 60.4089 73.3517 61.5503 77.3789 63.2957L79.7281 64.3026C87.7162 67.7262 92.2138 71.2164 92.2138 79.0699C92.2138 87.5283 85.5684 92.1595 76.6408 92.1595C67.9144 92.1595 62.2757 87.998 59.524 82.5605" fill="black"/>
</g>
<defs>
<clipPath id="clip0_17_547">
<rect width="100" height="100" fill="white"/>
</clipPath>
</defs>
</svg>
