<svg viewBox="0 0 100 100" fill="none" xmlns="http://www.w3.org/2000/svg">
<g clip-path="url(#clip0_17_613)">
<path fill-rule="evenodd" clip-rule="evenodd" d="M0.133911 0.349152H99.4928V99.708H0.133911V0.349152Z" fill="white"/>
<path fill-rule="evenodd" clip-rule="evenodd" d="M4.51733 66.4395H7.50725V54.5953L12.176 64.9217C12.705 66.1636 13.4638 66.6235 14.9358 66.6235C16.4077 66.6235 17.1206 66.1636 17.6726 64.9217L22.3184 54.5953V66.4395H25.3312V54.5953C25.3312 53.4454 24.8711 52.8933 23.9052 52.5945C21.6285 51.9044 20.1105 52.5025 19.4205 54.0432L14.8439 64.2546L10.4281 54.0432C9.76096 52.5025 8.22024 51.9044 5.92018 52.5945C4.97743 52.8933 4.51733 53.4454 4.51733 54.5953V66.4395Z" fill="#005C87"/>
<path fill-rule="evenodd" clip-rule="evenodd" d="M27.8151 56.8032H30.828V63.3119C30.805 63.6798 30.9429 64.5078 32.5757 64.5307C33.4266 64.5537 39.0613 64.5307 39.1074 64.5307V56.7573H42.1202C42.1202 56.7573 42.1202 67.3595 42.1202 67.4056C42.1202 70.0274 38.8774 70.6025 37.3596 70.6255H27.8841V68.6244C27.9071 68.6244 37.3596 68.6244 37.3826 68.6244C39.3143 68.4177 39.0844 67.4516 39.0844 67.1296V66.3478H32.7138C29.7469 66.3246 27.8381 65.0138 27.8151 63.5187C27.8151 63.3808 27.8841 56.8491 27.8151 56.8032Z" fill="#005C87"/>
<path fill-rule="evenodd" clip-rule="evenodd" d="M92.4413 49.2598C90.6016 49.2136 89.1758 49.3976 87.9794 49.9037C87.6346 50.0416 87.0825 50.0416 87.0366 50.4785C87.2206 50.6626 87.2438 50.9616 87.4047 51.2145C87.6804 51.6746 88.1639 52.2955 88.6005 52.6175C89.0835 52.9854 89.5665 53.3535 90.0727 53.6754C90.9696 54.2275 91.9815 54.5493 92.8552 55.1014C93.3614 55.4232 93.867 55.8373 94.3732 56.1823C94.6263 56.3663 94.7871 56.6653 95.1093 56.7803C95.1093 56.7573 95.1093 56.7342 95.1093 56.7112C94.9485 56.5042 94.9021 56.2052 94.7413 55.9753C94.5114 55.7453 94.2815 55.5383 94.051 55.3082C93.3846 54.4114 92.5562 53.6293 91.6593 52.9854C90.9232 52.4794 89.3134 51.7896 89.0145 50.9384C89.0145 50.9384 88.9913 50.9157 88.9686 50.8927C89.4742 50.8466 90.0727 50.6626 90.5557 50.5247C91.3377 50.3176 92.0505 50.3636 92.8552 50.1566C93.2232 50.0646 93.5913 49.9496 93.9593 49.8346C93.9593 49.7657 93.9593 49.6967 93.9593 49.6276C93.5454 49.2136 93.2464 48.6617 92.8093 48.2707C91.6366 47.2589 90.3485 46.2697 89.0145 45.4419C88.3016 44.9821 87.3815 44.6826 86.6227 44.2919C86.3469 44.1537 85.8866 44.0852 85.7258 43.8553C85.3119 43.3491 85.082 42.6821 84.783 42.0841C84.116 40.8192 83.4717 39.4161 82.8969 38.0826C82.483 37.1852 82.2299 36.2883 81.7242 35.4604C79.3552 31.5506 76.7794 29.1816 72.8232 26.8589C71.9727 26.3759 70.9608 26.1692 69.8794 25.9161C69.3047 25.8929 68.7299 25.847 68.1547 25.8238C67.7866 25.663 67.4191 25.2259 67.0969 25.0192C65.7861 24.1908 62.4052 22.397 61.4392 24.7661C60.8181 26.2609 62.3593 27.7331 62.8882 28.4919C63.2789 29.0207 63.7851 29.6187 64.0614 30.2166C64.2222 30.6078 64.2681 31.0218 64.4289 31.4357C64.7969 32.4475 65.1418 33.5743 65.6253 34.5176C65.8779 35.0006 66.1541 35.5063 66.4758 35.9434C66.6598 36.1965 66.982 36.3115 67.0511 36.7254C66.7289 37.1852 66.7057 37.8754 66.5217 38.4501C65.6938 41.0491 66.016 44.2692 67.1887 46.178C67.5567 46.7527 68.4309 48.0176 69.6036 47.5347C70.6387 47.1207 70.4088 45.8099 70.7077 44.6599C70.7768 44.3841 70.7309 44.2001 70.8686 44.0161C70.8686 44.0388 70.8686 44.062 70.8686 44.062C71.1907 44.7058 71.5124 45.3269 71.8114 45.9707C72.5248 47.0981 73.7665 48.2707 74.8011 49.0527C75.3536 49.4667 75.7902 50.1795 76.4804 50.4326C76.4804 50.4097 76.4804 50.3867 76.4804 50.3636C76.4572 50.3636 76.4572 50.3636 76.434 50.3636C76.2959 50.1566 76.0892 50.0646 75.9052 49.9037C75.4913 49.4897 75.0315 48.9837 74.7093 48.5236C73.7433 47.2357 72.8923 45.8099 72.1335 44.3377C71.7655 43.6249 71.4433 42.8429 71.1449 42.13C71.0067 41.8537 71.0067 41.4403 70.7768 41.3022C70.4315 41.8079 69.9258 42.245 69.6727 42.8661C69.2356 43.8553 69.1897 45.0738 69.0289 46.3388C68.9366 46.362 68.983 46.3388 68.9366 46.3847C68.2005 46.2006 67.948 45.4419 67.6717 44.7981C66.982 43.1651 66.8665 40.5434 67.465 38.6573C67.6258 38.1743 68.316 36.6563 68.0397 36.1965C67.9016 35.7594 67.4418 35.5063 67.1887 35.1615C66.8897 34.7243 66.5675 34.1728 66.3608 33.6893C65.8088 32.4017 65.533 30.9759 64.9351 29.6877C64.6588 29.0898 64.1763 28.4687 63.7851 27.9171C63.348 27.296 62.865 26.8589 62.5201 26.1228C62.4052 25.8697 62.2443 25.4563 62.4284 25.18C62.4742 24.996 62.566 24.9274 62.75 24.881C63.049 24.6279 63.9 24.9501 64.199 25.0883C65.05 25.4331 65.7629 25.7548 66.4758 26.2383C66.798 26.4682 67.1428 26.9048 67.5567 27.0197C67.7175 27.0197 67.8789 27.0197 68.0397 27.0197C68.7758 27.181 69.6036 27.0661 70.2938 27.2728C71.5124 27.664 72.6165 28.2388 73.6057 28.8599C76.6181 30.7687 79.1021 33.4826 80.7809 36.7254C81.0567 37.2542 81.1717 37.7372 81.4248 38.2893C81.9078 39.4161 82.5062 40.5661 82.9887 41.6702C83.4717 42.7512 83.932 43.8553 84.6217 44.7522C84.967 45.2347 86.3469 45.4877 86.9675 45.7408C87.4273 45.9481 88.1407 46.1321 88.5547 46.3847C89.3366 46.8676 90.1186 47.4197 90.8541 47.9486C91.2222 48.2249 92.3722 48.7997 92.4413 49.2598Z" fill="#005C87"/>
<path fill-rule="evenodd" clip-rule="evenodd" d="M68.983 29.2737C68.5917 29.2737 68.316 29.3196 68.0397 29.3887C68.0397 29.3887 68.0397 29.4119 68.0397 29.4345C68.0629 29.4345 68.0629 29.4345 68.0855 29.4345C68.2696 29.8026 68.5917 30.0557 68.8216 30.3773C69.0057 30.7454 69.1665 31.1134 69.3505 31.4814C69.3737 31.4588 69.3964 31.4356 69.3964 31.4356C69.7185 31.2057 69.8794 30.8376 69.8794 30.2856C69.7417 30.1247 69.7185 29.9634 69.6036 29.8026C69.466 29.5727 69.1665 29.4577 68.983 29.2737Z" fill="#005C87"/>
<path fill-rule="evenodd" clip-rule="evenodd" d="M44.4202 66.4395H53.0676C54.0794 66.4395 55.0454 66.2326 55.8274 65.8646C57.1382 65.2666 57.7593 64.4618 57.7593 63.4036V61.1958C57.7593 60.3449 57.0465 59.5399 55.6207 58.988C54.8846 58.7121 53.9645 58.5511 53.0676 58.5511H49.4339C48.2151 58.5511 47.64 58.183 47.4789 57.378C47.456 57.2862 47.456 57.1941 47.456 57.1021V55.7452C47.456 55.6761 47.456 55.5841 47.4789 55.4923C47.64 54.8713 47.962 54.7102 49.0199 54.5952C49.1119 54.5952 49.2269 54.5952 49.2957 54.5952H57.8743V52.5944H49.4568C48.238 52.5944 47.5941 52.6633 47.019 52.8473C45.2482 53.3992 44.4661 54.2731 44.4661 55.814V57.5622C44.4661 58.9189 45.9841 60.0688 48.56 60.3449C48.8358 60.3679 49.1349 60.3679 49.4339 60.3679H52.5387C52.6537 60.3679 52.7686 60.3679 52.8609 60.391C53.8037 60.4828 54.2176 60.6439 54.4939 60.9888C54.6774 61.1729 54.7238 61.3337 54.7238 61.5409V63.2887C54.7238 63.4956 54.5856 63.7717 54.3099 64.0017C54.0336 64.2316 53.5965 64.3927 53.0217 64.4156C52.9068 64.4156 52.8377 64.4386 52.7227 64.4386H44.4202V66.4395Z" fill="#E3820F"/>
<path fill-rule="evenodd" clip-rule="evenodd" d="M76.4805 62.9667C76.4805 65.0137 78.0212 66.1636 81.1032 66.3935C81.4021 66.4165 81.6779 66.4395 81.9769 66.4395H89.7965V64.4386H81.9078C80.1604 64.4386 79.4928 64.0017 79.4928 62.9437V52.5944H76.4805V62.9667Z" fill="#E3820F"/>
<path fill-rule="evenodd" clip-rule="evenodd" d="M59.6681 63.0592V55.9296C59.6681 54.1126 60.9562 53.0086 63.4629 52.6637C63.7392 52.6407 64.015 52.6178 64.2681 52.6178H69.9717C70.2707 52.6178 70.5238 52.6407 70.8227 52.6637C73.3294 53.0086 74.5944 54.1126 74.5944 55.9296V63.0592C74.5944 64.5311 74.0655 65.3131 72.8232 65.842L75.7676 68.5098H72.2949L69.9026 66.3481L67.4877 66.486H64.2681C63.7392 66.486 63.1408 66.4169 62.5202 66.256C60.6114 65.7271 59.6681 64.7151 59.6681 63.0592ZM62.9109 62.8983C62.9109 62.9901 62.9573 63.0821 62.9799 63.1973C63.1408 64.025 63.9232 64.4851 65.1191 64.4851H67.8325L65.349 62.2312H68.8217L71.0068 64.209C71.4207 63.9791 71.6732 63.6571 71.7655 63.2432C71.7887 63.1512 71.7887 63.0362 71.7887 62.9441V56.1135C71.7887 56.0216 71.7887 55.9296 71.7655 55.8376C71.6047 55.0555 70.8227 54.6186 69.6495 54.6186H65.1191C63.7851 54.6186 62.9109 55.1935 62.9109 56.1135V62.8983Z" fill="#E3820F"/>
<path fill-rule="evenodd" clip-rule="evenodd" d="M91.1763 66.4629H91.6134V64.7838H92.1882V64.4389H90.5784V64.7838H91.1763V66.4629ZM94.5114 66.4629H94.9253V64.4389H94.3041L93.7985 65.8188L93.2464 64.4389H92.6485V66.4629H93.0392V64.9219H93.0624L93.6371 66.4629H93.9361L94.5114 64.9219V66.4629Z" fill="#E3820F"/>
</g>
<defs>
<clipPath id="clip0_17_613">
<rect width="100" height="100" fill="white"/>
</clipPath>
</defs>
</svg>
