<svg viewBox="0 0 100 62" fill="none" xmlns="http://www.w3.org/2000/svg">
<g clip-path="url(#clip0_17_519)">
<path d="M49.4356 61.4871C49.097 61.4871 48.781 61.3968 48.4876 61.2388L45.4853 59.4555C45.0338 59.2072 45.2596 59.1169 45.395 59.0718C46.0045 58.8686 46.1174 58.8235 46.7494 58.4623C46.8171 58.4171 46.9074 58.4397 46.9752 58.4849L49.2776 59.8618C49.3679 59.907 49.4808 59.907 49.5485 59.8618L58.5553 54.6474C58.6456 54.6023 58.6907 54.512 58.6907 54.3991V43.9928C58.6907 43.8799 58.6456 43.7896 58.5553 43.7445L49.5485 38.5526C49.4582 38.5074 49.3454 38.5074 49.2776 38.5526L40.2709 43.7445C40.1806 43.7896 40.1354 43.9025 40.1354 43.9928V54.3991C40.1354 54.4894 40.1806 54.6023 40.2709 54.6474L42.7314 56.0695C44.0632 56.7467 44.8984 55.9567 44.8984 55.1666V44.8957C44.8984 44.7603 45.0113 44.6248 45.1693 44.6248H46.3205C46.456 44.6248 46.5914 44.7377 46.5914 44.8957V55.1666C46.5914 56.9499 45.6208 57.9883 43.9277 57.9883C43.4086 57.9883 43.0022 57.9883 41.851 57.4239L39.4808 56.0695C38.8939 55.7309 38.5327 55.0989 38.5327 54.4217V44.0153C38.5327 43.3381 38.8939 42.7061 39.4808 42.3675L48.4876 37.153C49.0519 36.837 49.8194 36.837 50.3837 37.153L59.3905 42.3675C59.9774 42.7061 60.3386 43.3381 60.3386 44.0153V54.4217C60.3386 55.0989 59.9774 55.7309 59.3905 56.0695L50.3837 61.284C50.0903 61.4194 49.7517 61.4871 49.4356 61.4871ZM52.2122 54.3314C48.2618 54.3314 47.4492 52.5255 47.4492 50.9905C47.4492 50.8551 47.5621 50.7196 47.7201 50.7196H48.8939C49.0293 50.7196 49.1422 50.8099 49.1422 50.9454C49.3228 52.1418 49.842 52.7287 52.2347 52.7287C54.1309 52.7287 54.9436 52.2998 54.9436 51.284C54.9436 50.6971 54.7178 50.2682 51.7607 49.9747C49.3002 49.7264 47.7652 49.1846 47.7652 47.2208C47.7652 45.3923 49.3002 44.3088 51.8736 44.3088C54.763 44.3088 56.1851 45.302 56.3657 47.4691C56.3657 47.5368 56.3431 47.6045 56.298 47.6722C56.2528 47.7174 56.1851 47.7625 56.1174 47.7625H54.9436C54.8307 47.7625 54.7178 47.6722 54.6952 47.5594C54.4244 46.3178 53.7246 45.9115 51.8736 45.9115C49.7968 45.9115 49.5485 46.6339 49.5485 47.1756C49.5485 47.8302 49.842 48.0334 52.6411 48.3946C55.4176 48.7557 56.7268 49.2749 56.7268 51.2162C56.7043 53.2027 55.079 54.3314 52.2122 54.3314Z" fill="#539E43"/>
<path d="M21.4899 20.7876C21.4899 20.3812 21.2641 19.9975 20.903 19.7943L11.3318 14.2864C11.1738 14.1961 10.9932 14.151 10.8127 14.1284H10.7224C10.5418 14.1284 10.3612 14.1961 10.2032 14.2864L0.632073 19.7943C0.2709 19.9975 0.045166 20.3812 0.045166 20.7876L0.0677394 35.5957C0.0677394 35.7988 0.180606 36.002 0.361193 36.0923C0.54178 36.2052 0.767514 36.2052 0.925527 36.0923L6.61401 32.8417C6.97519 32.6386 7.20092 32.2548 7.20092 31.8485V24.9185C7.20092 24.5122 7.42666 24.1284 7.78783 23.9253L10.2032 22.5257C10.3838 22.4128 10.5869 22.3677 10.7901 22.3677C10.9932 22.3677 11.1964 22.4128 11.3544 22.5257L13.7698 23.9253C14.1309 24.1284 14.3567 24.5122 14.3567 24.9185V31.8485C14.3567 32.2548 14.5824 32.6386 14.9436 32.8417L20.6321 36.0923C20.8127 36.2052 21.0384 36.2052 21.219 36.0923C21.3996 36.002 21.5124 35.7988 21.5124 35.5957L21.4899 20.7876Z" fill="#333333"/>
<path d="M67.4944 0.403658C67.3138 0.313364 67.088 0.313364 66.93 0.403658C66.7494 0.516524 66.6366 0.697111 66.6366 0.900272V15.573C66.6366 15.7084 66.5689 15.8438 66.4334 15.9341C66.298 16.0019 66.1625 16.0019 66.0271 15.9341L63.6343 14.5572C63.2732 14.354 62.8443 14.354 62.4831 14.5572L52.912 20.0876C52.5508 20.2908 52.3251 20.6745 52.3251 21.0809V32.1192C52.3251 32.5256 52.5508 32.9093 52.912 33.1125L62.4831 38.6429C62.8443 38.8461 63.2732 38.8461 63.6343 38.6429L73.2054 33.1125C73.5666 32.9093 73.7923 32.5256 73.7923 32.1192V4.6023C73.7923 4.17341 73.5666 3.78966 73.2054 3.5865L67.4944 0.403658ZM66.614 28.4849C66.614 28.5978 66.5689 28.6881 66.4786 28.7332L63.2054 30.6294C63.1151 30.6745 63.0023 30.6745 62.912 30.6294L59.6388 28.7332C59.5486 28.6881 59.5034 28.5752 59.5034 28.4849V24.6926C59.5034 24.5797 59.5486 24.4894 59.6388 24.4443L62.912 22.5481C63.0023 22.503 63.1151 22.503 63.2054 22.5481L66.4786 24.4443C66.5689 24.4894 66.614 24.6023 66.614 24.6926V28.4849Z" fill="#333333"/>
<path d="M99.3454 24.6025C99.7065 24.3993 99.9097 24.0156 99.9097 23.6093V20.923C99.9097 20.5167 99.684 20.133 99.3454 19.9298L89.842 14.4219C89.4808 14.2187 89.0519 14.2187 88.6907 14.4219L79.1196 19.9524C78.7584 20.1555 78.5327 20.5393 78.5327 20.9456V31.984C78.5327 32.3903 78.7584 32.774 79.1196 32.9772L88.623 38.3948C88.9842 38.598 89.4131 38.598 89.7517 38.3948L95.5079 35.1894C95.6885 35.0991 95.8013 34.8959 95.8013 34.6928C95.8013 34.4896 95.6885 34.2865 95.5079 34.1962L85.8916 28.6657C85.711 28.5528 85.5982 28.3722 85.5982 28.1691V24.7154C85.5982 24.5122 85.711 24.309 85.8916 24.2187L88.8939 22.5032C89.0745 22.3903 89.3002 22.3903 89.4808 22.5032L92.4831 24.2187C92.6636 24.3316 92.7765 24.5122 92.7765 24.7154V27.4242C92.7765 27.6273 92.8894 27.8305 93.07 27.9208C93.2505 28.0336 93.4763 28.0336 93.6569 27.9208L99.3454 24.6025Z" fill="#333333"/>
<path d="M89.1197 24.0832C89.1874 24.038 89.2777 24.038 89.3454 24.0832L91.1738 25.1441C91.2415 25.1893 91.2867 25.257 91.2867 25.3473V27.4692C91.2867 27.5595 91.2415 27.6272 91.1738 27.6723L89.3454 28.7333C89.2777 28.7784 89.1874 28.7784 89.1197 28.7333L87.2912 27.6723C87.2235 27.6272 87.1783 27.5595 87.1783 27.4692V25.3473C87.1783 25.257 87.2235 25.1893 87.2912 25.1441L89.1197 24.0832Z" fill="#539E43"/>
<mask id="mask0_17_519" style="mask-type:alpha" maskUnits="userSpaceOnUse" x="26" y="14" width="22" height="25">
<path d="M37.4944 14.4668C37.1332 14.2637 36.7043 14.2637 36.3431 14.4668L26.8397 19.9522C26.4786 20.1553 26.2754 20.5391 26.2754 20.9454V31.9386C26.2754 32.3449 26.5011 32.7287 26.8397 32.9318L36.3431 38.4172C36.7043 38.6203 37.1332 38.6203 37.4944 38.4172L46.9977 32.9318C47.3589 32.7287 47.5621 32.3449 47.5621 31.9386V20.9454C47.5621 20.5391 47.3363 20.1553 46.9977 19.9522L37.4944 14.4668Z" fill="white"/>
</mask>
<g mask="url(#mask0_17_519)">
<path d="M37.4944 14.4668C37.1332 14.2637 36.7043 14.2637 36.3431 14.4668L26.8397 19.9522C26.4786 20.1553 26.2754 20.5391 26.2754 20.9454V31.9386C26.2754 32.3449 26.5011 32.7287 26.8397 32.9318L36.3431 38.4172C36.7043 38.6203 37.1332 38.6203 37.4944 38.4172L46.9977 32.9318C47.3589 32.7287 47.5621 32.3449 47.5621 31.9386V20.9454C47.5621 20.5391 47.3363 20.1553 46.9977 19.9522L37.4944 14.4668Z" fill="url(#paint0_linear_17_519)"/>
<path d="M47.0203 19.9522L37.4717 14.4669C37.3815 14.4217 37.2686 14.3766 37.1783 14.354L26.4785 32.6836C26.5688 32.7964 26.6817 32.8867 26.7945 32.9545L36.3431 38.4398C36.614 38.5978 36.93 38.6429 37.2234 38.5527L47.2686 20.1779C47.2009 20.0876 47.1106 20.0199 47.0203 19.9522Z" fill="url(#paint1_linear_17_519)"/>
<path fill-rule="evenodd" clip-rule="evenodd" d="M47.0429 32.932C47.3138 32.774 47.5169 32.5031 47.6072 32.2097L37.1332 14.3316C36.8623 14.2864 36.5688 14.309 36.3205 14.467L26.8397 19.9298L37.0655 38.5754C37.2009 38.5528 37.3589 38.5076 37.4943 38.4399L47.0429 32.932Z" fill="url(#paint2_linear_17_519)"/>
<path fill-rule="evenodd" clip-rule="evenodd" d="M47.0429 32.9319L37.5169 38.4173C37.3815 38.485 37.246 38.5301 37.088 38.5527L37.2686 38.8913L47.8329 32.7739V32.6385L47.5621 32.187C47.5169 32.503 47.3137 32.7739 47.0429 32.9319Z" fill="url(#paint3_linear_17_519)"/>
<path fill-rule="evenodd" clip-rule="evenodd" d="M47.0429 32.9319L37.5169 38.4173C37.3815 38.485 37.246 38.5301 37.088 38.5527L37.2686 38.8913L47.8329 32.7739V32.6385L47.5621 32.187C47.5169 32.503 47.3137 32.7739 47.0429 32.9319Z" fill="url(#paint4_linear_17_519)"/>
</g>
</g>
<defs>
<linearGradient id="paint0_linear_17_519" x1="40.7904" y1="18.5559" x2="30.3734" y2="34.9234" gradientUnits="userSpaceOnUse">
<stop stop-color="#41873F"/>
<stop offset="0.3288" stop-color="#418B3D"/>
<stop offset="0.6352" stop-color="#419637"/>
<stop offset="0.9319" stop-color="#3FA92D"/>
<stop offset="1" stop-color="#3FAE2A"/>
</linearGradient>
<linearGradient id="paint1_linear_17_519" x1="35.4757" y1="27.7295" x2="61.5635" y2="13.5561" gradientUnits="userSpaceOnUse">
<stop offset="0.1376" stop-color="#41873F"/>
<stop offset="0.4032" stop-color="#54A044"/>
<stop offset="0.7136" stop-color="#66B848"/>
<stop offset="0.9081" stop-color="#6CC04A"/>
</linearGradient>
<linearGradient id="paint2_linear_17_519" x1="25.9283" y1="26.4425" x2="47.9186" y2="26.4425" gradientUnits="userSpaceOnUse">
<stop offset="0.0919165" stop-color="#6CC04A"/>
<stop offset="0.2864" stop-color="#66B848"/>
<stop offset="0.5968" stop-color="#54A044"/>
<stop offset="0.8624" stop-color="#41873F"/>
</linearGradient>
<linearGradient id="paint3_linear_17_519" x1="25.9283" y1="35.5576" x2="47.9186" y2="35.5576" gradientUnits="userSpaceOnUse">
<stop offset="0.0919165" stop-color="#6CC04A"/>
<stop offset="0.2864" stop-color="#66B848"/>
<stop offset="0.5968" stop-color="#54A044"/>
<stop offset="0.8624" stop-color="#41873F"/>
</linearGradient>
<linearGradient id="paint4_linear_17_519" x1="51.1223" y1="18.0363" x2="45.5513" y2="47.2283" gradientUnits="userSpaceOnUse">
<stop stop-color="#41873F"/>
<stop offset="0.3288" stop-color="#418B3D"/>
<stop offset="0.6352" stop-color="#419637"/>
<stop offset="0.9319" stop-color="#3FA92D"/>
<stop offset="1" stop-color="#3FAE2A"/>
</linearGradient>
<clipPath id="clip0_17_519">
<rect width="100" height="61.3281" fill="white" transform="translate(0 0.335938)"/>
</clipPath>
</defs>
</svg>
