<svg viewBox="0 0 100 122" fill="none" xmlns="http://www.w3.org/2000/svg">
<g clip-path="url(#clip0_17_552)">
<path d="M99.341 92.4524L57.8129 4.26144C56.7617 2.05029 54.5828 0.593471 52.1378 0.466944C49.6871 0.302745 47.3485 1.5151 46.0702 3.61242L1.02838 76.5651C-0.369923 78.8139 -0.340503 81.6688 1.10385 83.8884L23.1252 117.991C24.8362 120.62 28.0728 121.81 31.0794 120.916L94.985 102.013C96.9319 101.443 98.5363 100.058 99.3833 98.2151C100.219 96.3809 100.204 94.272 99.344 92.4494L99.341 92.4524ZM90.0435 96.2348L35.8157 112.27C34.1615 112.762 32.5737 111.328 32.9178 109.659L52.2917 16.8916C52.654 15.1559 55.0508 14.8812 55.8085 16.4871L91.6735 92.6486C91.9945 93.3355 91.9983 94.1284 91.6841 94.8184C91.3699 95.5084 90.7692 96.026 90.0404 96.2348H90.0435Z" fill="currentColor"/>
</g>
<defs>
<clipPath id="clip0_17_552">
<rect width="100" height="121.094" fill="white" transform="translate(0 0.453125)"/>
</clipPath>
</defs>
</svg>
