<svg viewBox="0 0 100 100" fill="none" xmlns="http://www.w3.org/2000/svg">
<g clip-path="url(#clip0_17_625)">
<path d="M49.5766 0.223633C24.2514 0.223635 25.8329 11.2061 25.8329 11.2061L25.8611 22.5839H50.0283V26H16.2621C16.2621 26 0.0565186 24.1622 0.0565186 49.7154C0.0565167 75.2687 14.2011 74.3625 14.2011 74.3625H22.6426V62.5048C22.6426 62.5048 22.1876 48.3603 36.5613 48.3603H60.5308C60.5308 48.3603 73.9978 48.578 73.9978 35.345V13.4647C73.9978 13.4647 76.0424 0.223633 49.5766 0.223633ZM36.2508 7.87468C38.6552 7.87467 40.5986 9.81805 40.5986 12.2225C40.5986 14.627 38.6552 16.5703 36.2508 16.5703C33.8463 16.5703 31.9029 14.627 31.9029 12.2225C31.9029 9.81805 33.8463 7.87468 36.2508 7.87468Z" fill="url(#paint0_linear_17_625)"/>
<path d="M50.2957 99.4637C75.6209 99.4637 74.0394 88.4812 74.0394 88.4812L74.0112 77.1034H49.844V73.6873H83.6103C83.6103 73.6873 99.8158 75.5251 99.8158 49.9719C99.8158 24.4186 85.6712 25.3248 85.6712 25.3248H77.2297V37.1825C77.2297 37.1825 77.6847 51.327 63.311 51.327H39.3415C39.3415 51.327 25.8745 51.1093 25.8745 64.3423V86.2226C25.8745 86.2226 23.8299 99.4637 50.2957 99.4637ZM63.6215 91.8126C61.2171 91.8126 59.2737 89.8693 59.2737 87.4648C59.2737 85.0604 61.2171 83.117 63.6215 83.117C66.026 83.117 67.9694 85.0604 67.9694 87.4648C67.9694 89.8693 66.026 91.8126 63.6215 91.8126Z" fill="url(#paint1_linear_17_625)"/>
</g>
<defs>
<linearGradient id="paint0_linear_17_625" x1="9.64358" y1="9.14999" x2="59.0807" y2="58.0939" gradientUnits="userSpaceOnUse">
<stop stop-color="#387EB8"/>
<stop offset="1" stop-color="#366994"/>
</linearGradient>
<linearGradient id="paint1_linear_17_625" x1="39.988" y1="40.5788" x2="93.0782" y2="90.7665" gradientUnits="userSpaceOnUse">
<stop stop-color="#FFE052"/>
<stop offset="1" stop-color="#FFC331"/>
</linearGradient>
<clipPath id="clip0_17_625">
<rect width="100" height="99.6094" fill="white" transform="translate(0 0.195312)"/>
</clipPath>
</defs>
</svg>
