<svg  viewBox="0 0 100 90" fill="none" xmlns="http://www.w3.org/2000/svg">
<path fill-rule="evenodd" clip-rule="evenodd" d="M75.6838 30.3053C76.6607 30.5873 77.6095 30.8855 78.5252 31.2006C88.0581 34.4823 94.2185 39.6228 94.2185 44.9383C94.2185 50.4814 87.635 55.9012 77.5164 59.2537C76.9817 59.431 76.4334 59.6014 75.8749 59.7665C76.0742 60.5678 76.2518 61.3551 76.4043 62.1257C78.4018 72.2159 76.8633 80.5092 72.1291 83.2498C67.5454 85.9034 60.1366 83.2968 52.6353 76.8416C51.8431 76.1598 51.0468 75.4328 50.2491 74.6647C49.6337 75.2596 49.0194 75.827 48.4073 76.3621C40.6629 83.1317 32.7098 85.9406 27.9709 83.2079C23.383 80.5617 21.9413 72.8415 23.7874 63.1188C23.982 62.093 24.2139 61.0413 24.4805 59.9681C23.6592 59.7325 22.8622 59.4842 22.094 59.2217C12.3608 55.8949 5.95422 50.4083 5.95422 44.9383C5.95422 39.642 11.9222 34.5359 21.2669 31.2779C22.3113 30.9139 23.4029 30.5717 24.5336 30.2508C24.2865 29.2585 24.068 28.2825 23.881 27.3268C21.945 17.4324 23.3073 9.52538 27.9074 6.86238C32.7047 4.08516 40.694 7.06757 48.6647 14.1447C49.1511 14.5766 49.6387 15.0281 50.1272 15.4954C50.8603 14.7892 51.5937 14.1153 52.325 13.4789C59.9303 6.86018 67.4607 4.09161 72.0653 6.74691C76.8673 9.51611 78.2736 17.927 76.1228 28.3673C75.9918 29.0032 75.8444 29.65 75.6838 30.3053ZM74.848 56.1386C75.3527 55.9889 75.8479 55.8345 76.3305 55.6747C85.0672 52.7798 90.4479 48.3504 90.4479 44.9383C90.4479 41.735 85.4656 37.5778 77.2979 34.766C76.4534 34.4752 75.577 34.1996 74.6741 33.9383C73.5883 37.4517 72.139 41.1641 70.3784 44.9567C72.2234 48.8419 73.731 52.6023 74.848 56.1386ZM73.1297 74.5072C73.7148 71.3537 73.5887 67.3198 72.7054 62.858C72.5676 62.1616 72.4077 61.4492 72.2276 60.7229C68.5718 61.568 64.5406 62.187 60.2737 62.5657C57.8477 66.0775 55.3621 69.2397 52.8751 71.9597C53.6182 72.6748 54.359 73.3506 55.0944 73.9834C61.5096 79.5039 67.4581 81.5968 70.2397 79.9867C71.5469 79.2301 72.6041 77.3408 73.1297 74.5072ZM29.855 79.9413C31.1634 80.6957 33.3279 80.6683 36.0455 79.7085C39.0699 78.6403 42.5016 76.5165 45.9261 73.5231C46.4839 73.0354 47.0447 72.5179 47.6078 71.9743C45.0306 69.2085 42.4732 66.0499 40.0309 62.6134C35.7538 62.2667 31.7521 61.6913 28.1363 60.8918C27.8883 61.8917 27.673 62.8698 27.4922 63.8221C25.9134 72.1369 27.0708 78.3355 29.855 79.9413ZM13.0191 50.1847C15.4554 52.2709 19.0097 54.1828 23.3136 55.6538C24.0136 55.8929 24.7412 56.1201 25.4922 56.336C26.6075 52.7011 28.077 48.8849 29.848 45.0301C28.0996 41.2316 26.6507 37.4753 25.5462 33.8825C24.4928 34.1818 23.4777 34.5005 22.5081 34.8386C14.5164 37.6249 9.72472 41.7243 9.72472 44.9383C9.72472 46.4486 10.83 48.3099 13.0191 50.1847ZM29.7965 10.1258C27.0243 11.7305 25.9227 18.1254 27.5814 26.6027C27.755 27.4902 27.9585 28.398 28.1882 29.322C31.8416 28.4943 35.8152 27.8763 39.9663 27.4915C42.3869 24.0753 44.9209 20.9404 47.4854 18.1867C47.0425 17.7638 46.6009 17.355 46.161 16.9644C39.279 10.8536 32.7494 8.41624 29.7965 10.1258ZM62.9706 31.5898C63.8847 33.0225 64.7813 34.4954 65.6546 36.004C66.5464 37.5444 67.3932 39.077 68.1938 40.5971C69.3099 37.9839 70.2581 35.4348 71.0188 32.9968C68.485 32.4184 65.7868 31.9459 62.9706 31.5898ZM55.3225 27.1518C53.6094 24.8693 51.8677 22.7657 50.1285 20.8814C48.3621 22.7873 46.6053 24.8882 44.8905 27.1495C46.6061 27.0693 48.3409 27.0279 50.0864 27.0279C51.8485 27.0279 53.5962 27.0703 55.3225 27.1518ZM32.0113 40.5942C32.7993 39.0671 33.6304 37.5429 34.5029 36.0301V36.0298C35.3777 34.5129 36.2817 33.0291 37.2086 31.5833C34.4103 31.9325 31.7249 32.3933 29.2066 32.9569C29.9739 35.4294 30.9132 37.9902 32.0113 40.5942ZM29.1546 57.2547C31.6722 57.8027 34.3981 58.2398 37.2892 58.5624C36.3384 57.0869 35.4121 55.574 34.518 54.0294H34.5178C33.64 52.5133 32.8056 50.9884 32.0155 49.4624C30.8942 52.1226 29.9341 54.738 29.1546 57.2547ZM44.9222 62.9056C46.6631 65.1999 48.4457 67.3328 50.2328 69.261C51.9602 67.3592 53.6957 65.223 55.4144 62.8874C53.6639 62.9653 51.8854 63.0059 50.0864 63.0059C48.3352 63.0059 46.6122 62.9719 44.9222 62.9056ZM71.1937 57.0913C70.4041 54.6175 69.4096 52.0158 68.2298 49.3269C67.4226 50.8829 66.5689 52.4444 65.6697 54.0035C64.781 55.5446 63.8765 57.0428 62.9602 58.4948C65.8715 58.1454 68.6345 57.6752 71.1937 57.0913ZM58.1693 58.9515C59.6074 56.7958 61.0239 54.5121 62.4036 52.1198C63.7814 49.7303 65.0499 47.338 66.1962 44.9752C65.0465 42.6524 63.7752 40.284 62.3912 37.8934C61.0228 35.5294 59.5979 33.2574 58.1384 31.103C55.5142 30.9028 52.819 30.7985 50.0864 30.7985H50.0862C47.3659 30.7985 44.6741 30.902 42.0491 31.1005C40.567 33.2708 39.1324 35.5501 37.7693 37.9138L37.7696 37.9133C36.4102 40.2708 35.155 42.655 34.0151 45.0288C35.1554 47.3971 36.4138 49.7787 37.7811 52.1404H37.7808C39.1517 54.5085 40.599 56.799 42.095 58.9829C44.6678 59.1499 47.3396 59.2353 50.0864 59.2353C52.8443 59.2353 55.5502 59.1388 58.1693 58.9515ZM72.43 27.6063C74.287 18.5922 73.1376 11.7181 70.1819 10.0136C67.407 8.41342 61.3167 10.6524 54.8004 16.3232C54.126 16.9104 53.4487 17.5325 52.7704 18.185C55.2931 20.9033 57.8064 24.0431 60.2317 27.4968C64.3949 27.8874 68.3714 28.5162 72.0333 29.3611C72.1781 28.7674 72.3115 28.1815 72.43 27.6063Z" fill="#61DAFB"/>
<path d="M50.0864 37.0566C54.4393 37.0566 57.9681 40.5853 57.9681 44.9383C57.9681 49.2912 54.4393 52.82 50.0864 52.82C45.7335 52.82 42.2047 49.2912 42.2047 44.9383C42.2047 40.5853 45.7335 37.0566 50.0864 37.0566Z" fill="#61DAFB"/>
</svg>
