<svg viewBox="0 0 100 76" fill="none" xmlns="http://www.w3.org/2000/svg">
<g clip-path="url(#clip0_17_515)">
<path d="M86.0474 43.6693C82.5683 43.6875 79.5446 44.5254 77.0127 45.764C76.0838 43.9243 75.1548 42.285 74.9909 41.0828C74.8087 39.6802 74.5902 38.8241 74.8087 37.1484C75.0273 35.4726 76.0109 33.0864 75.9927 32.9043C75.9745 32.7221 75.7741 31.866 73.7705 31.8478C71.7668 31.8296 70.0364 32.2303 69.8361 32.7586C69.6357 33.2868 69.2532 34.489 68.9982 35.7276C68.6521 37.5491 64.9909 44.0518 62.8962 47.458C62.2222 46.1283 61.6393 44.9626 61.5118 44.0336C61.3297 42.6311 61.1111 41.775 61.3297 40.0992C61.5483 38.4234 62.5319 36.0372 62.5137 35.8551C62.4954 35.6729 62.2951 34.8168 60.2914 34.7986C58.2878 34.7804 56.5574 35.1811 56.357 35.7094C56.1566 36.2376 55.9381 37.4762 55.5191 38.6784C55.1002 39.8806 50.2368 50.7367 48.9617 53.5418C48.306 54.9808 47.7413 56.1283 47.3406 56.9116C47.3406 56.9116 47.3224 56.9662 47.2678 57.0573C46.9217 57.7312 46.7213 58.0955 46.7213 58.0955C46.7213 58.0955 46.7213 58.0955 46.7213 58.1137C46.4481 58.6055 46.1566 59.0609 46.0109 59.0609C45.9016 59.0609 45.7013 57.7495 46.0474 55.9644C46.776 52.1939 48.5064 46.3287 48.4882 46.1283C48.4882 46.019 48.816 44.999 47.3588 44.4708C45.9381 43.9425 45.428 44.8168 45.3005 44.8168C45.173 44.8168 45.082 45.1265 45.082 45.1265C45.082 45.1265 46.6667 38.5327 42.0583 38.5327C39.1803 38.5327 35.2095 41.6839 33.2423 44.5254C32.0036 45.1994 29.3625 46.6383 26.5392 48.1866C25.4645 48.7877 24.3534 49.3888 23.3151 49.9535C23.2423 49.8806 23.1694 49.7895 23.0965 49.7167C17.5228 43.7604 7.21311 39.5527 7.65027 31.5564C7.8142 28.642 8.81602 20.9917 27.4499 11.7021C42.7869 4.14289 54.9909 6.23761 57.1038 10.8824C60.1275 17.5127 50.5647 29.826 34.7177 31.611C28.6703 32.285 25.5009 29.9535 24.6994 29.0791C23.8616 28.1684 23.7341 28.1137 23.4244 28.2959C22.9144 28.5691 23.2423 29.3888 23.4244 29.8624C23.898 31.101 25.847 33.2868 29.1439 34.3615C32.0583 35.3086 39.1439 35.8369 47.7231 32.5218C57.3224 28.8059 64.827 18.478 62.6229 9.82595C60.4189 1.04635 45.847 -1.84983 32.0583 3.04999C23.8616 5.96438 14.9727 10.5545 8.57923 16.529C0.983601 23.6329 -0.218585 29.8077 0.273219 32.3943C2.04007 41.5746 14.6994 47.5491 19.7632 51.9753C19.5082 52.121 19.2714 52.2485 19.071 52.3578C16.5392 53.6147 6.88524 58.6602 4.48087 63.9972C1.74863 70.0445 4.91803 74.3797 7.01274 74.9626C13.5155 76.7658 20.2004 73.5236 23.7887 68.1684C27.377 62.8132 26.9399 55.8551 25.2823 52.6675C25.2641 52.6311 25.2459 52.5946 25.2095 52.5582C25.8652 52.1757 26.5392 51.7749 27.1949 51.3924C28.4882 50.6274 29.7632 49.917 30.8561 49.3341C30.2368 51.0281 29.7814 53.05 29.5628 55.9644C29.2896 59.3888 30.6922 63.8332 32.5319 65.5819C33.3515 66.3469 34.3169 66.3651 34.9362 66.3651C37.0856 66.3651 38.051 64.58 39.1257 62.4671C40.4372 59.8806 41.6211 56.8751 41.6211 56.8751C41.6211 56.8751 40.1457 64.999 44.153 64.999C45.6102 64.999 47.0856 63.1046 47.7413 62.1392V62.1575C47.7413 62.1575 47.7778 62.1028 47.8506 61.9753C47.9964 61.7385 48.0874 61.5928 48.0874 61.5928V61.5564C48.6703 60.5363 49.9818 58.223 51.9308 54.3797C54.4444 49.4252 56.867 43.2321 56.867 43.2321C56.867 43.2321 57.0856 44.744 57.8324 47.2576C58.2696 48.7331 59.1803 50.3542 59.9089 51.9207C59.326 52.7403 58.9617 53.1957 58.9617 53.1957C58.9617 53.1957 58.9617 53.1957 58.98 53.2139C58.5064 53.8332 57.9964 54.5072 57.4317 55.1629C55.4463 57.5309 53.0783 60.2449 52.7505 61.0281C52.3679 61.9571 52.459 62.6311 53.1876 63.1775C53.7158 63.5782 54.663 63.6329 55.6284 63.5782C57.4135 63.4507 58.6703 63.0136 59.2896 62.7403C60.255 62.3943 61.3843 61.866 62.4408 61.0828C64.3898 59.6438 65.5738 57.5855 65.4645 54.8715C65.4098 53.3779 64.918 51.8842 64.3169 50.4817C64.4991 50.2267 64.663 49.9717 64.8452 49.7167C67.9235 45.2176 70.3097 40.2813 70.3097 40.2813C70.3097 40.2813 70.5282 41.7932 71.275 44.3068C71.6393 45.5819 72.3862 46.9662 73.0419 48.3141C70.1457 50.6638 68.3606 53.3961 67.7231 55.1811C66.5756 58.4963 67.4681 59.9899 69.1621 60.336C69.9271 60.4999 71.02 60.1356 71.8215 59.7895C72.8415 59.4617 74.0437 58.897 75.1913 58.0591C77.1403 56.6201 79.0164 54.6165 78.9071 51.9025C78.8525 50.6638 78.5246 49.4434 78.0692 48.2595C80.5282 47.2394 83.6976 46.6748 87.7413 47.1484C96.4117 48.1684 98.1239 53.5782 97.796 55.8551C97.4681 58.132 95.6466 59.3706 95.0455 59.7531C94.4444 60.1356 94.2441 60.2631 94.2987 60.5363C94.3716 60.9371 94.663 60.9188 95.173 60.846C95.8834 60.7185 99.7268 59.0063 99.8907 54.8168C100.164 49.4617 95.0637 43.6147 86.0474 43.6693ZM19.1621 66.2194C16.2841 69.3524 12.2769 70.5363 10.5464 69.5345C8.68852 68.4598 9.41712 63.8332 12.9508 60.5181C15.1002 58.4963 17.8688 56.6201 19.7086 55.4726C20.1275 55.2176 20.7468 54.8533 21.4936 54.3979C21.6211 54.325 21.694 54.2886 21.694 54.2886C21.8397 54.1975 21.9854 54.1065 22.1311 54.0154C23.4244 58.7513 22.1858 62.9225 19.1621 66.2194ZM40.1093 51.9753C39.1075 54.4161 37.0127 60.6638 35.7377 60.3178C34.6448 60.0263 33.9709 55.2904 35.5191 50.6092C36.3024 48.2595 37.9599 45.4544 38.9253 44.3615C40.4918 42.6128 42.2222 42.03 42.6412 42.7403C43.1694 43.6693 40.7286 50.4453 40.1093 51.9753ZM57.3953 60.2449C56.9763 60.4635 56.5756 60.6092 56.3934 60.4999C56.2659 60.427 56.5756 60.1356 56.5756 60.1356C56.5756 60.1356 58.7432 57.8041 59.5993 56.7476C60.0911 56.1283 60.674 55.3997 61.2933 54.58V54.8168C61.2933 57.6037 58.5974 59.4799 57.3953 60.2449ZM70.7286 57.203C70.4189 56.9844 70.4736 56.2558 71.5118 53.979C71.9126 53.0864 72.8597 51.5928 74.4809 50.1538C74.663 50.7367 74.7905 51.3014 74.7723 51.8296C74.7541 55.3451 72.2404 56.6566 70.7286 57.203Z" fill="#CD6799"/>
</g>
<defs>
<clipPath id="clip0_17_515">
<rect width="100" height="75" fill="white" transform="translate(0 0.5)"/>
</clipPath>
</defs>
</svg>
