<svg viewBox="0 0 100 14" fill="none" xmlns="http://www.w3.org/2000/svg">
<g clip-path="url(#clip0_17_459)">
<path fill-rule="evenodd" clip-rule="evenodd" d="M10.2891 0.75C7.54516 0.75 5.83065 2.11371 5.14435 4.84113C6.17339 3.47742 7.37379 2.96613 8.74556 3.30685C9.52823 3.50121 10.0879 4.06573 10.7069 4.69073C11.7157 5.70847 12.8835 6.88629 15.4335 6.88629C18.177 6.88629 19.8919 5.52258 20.5778 2.79556C19.5492 4.15927 18.3488 4.67056 16.977 4.32944C16.194 4.13508 15.6343 3.57056 15.0153 2.94597C14.0065 1.92742 12.8391 0.75 10.2891 0.75ZM5.14435 6.88629C2.40081 6.88629 0.685887 8.25 0 10.9774C1.02903 9.61371 2.22944 9.10242 3.60081 9.44314C4.38387 9.6375 4.94355 10.202 5.5625 10.827C6.57137 11.8448 7.73871 13.0226 10.2891 13.0226C13.0327 13.0226 14.7476 11.6593 15.4335 8.93186C14.4044 10.2956 13.204 10.8069 11.8323 10.4661C11.0496 10.2714 10.4899 9.70685 9.87097 9.08226C8.8621 8.06452 7.69436 6.88629 5.14435 6.88629Z" fill="#38BDF8"/>
<path fill-rule="evenodd" clip-rule="evenodd" d="M30.8653 5.92126H29.0697V9.3757C29.0697 10.2971 29.6778 10.2826 30.8653 10.2249V11.6213C28.4612 11.9092 27.5056 11.2471 27.5056 9.3757V5.92126H26.1733V4.42408H27.5056V2.49102L29.0697 2.03013V4.42408H30.8653V5.92126ZM37.7096 4.42408H39.2733V11.6213H37.7096V10.585C37.1592 11.3475 36.3048 11.8084 35.1754 11.8084C33.206 11.8084 31.5697 10.1531 31.5697 8.02247C31.5697 5.87812 33.206 4.23699 35.1754 4.23699C36.3048 4.23699 37.1592 4.69747 37.7096 5.44626V4.42408ZM35.4217 10.3257C36.725 10.3257 37.7096 9.36118 37.7096 8.02247C37.7096 6.68376 36.725 5.71965 35.4217 5.71965C34.1185 5.71965 33.1338 6.68416 33.1338 8.02247C33.1338 9.36118 34.1185 10.3257 35.4217 10.3257ZM41.8798 3.34465C41.3298 3.34465 40.881 2.88416 40.881 2.3515C40.8823 2.08752 40.9881 1.8348 41.1753 1.64866C41.3625 1.46253 41.6158 1.35814 41.8798 1.35836C42.1438 1.35803 42.3973 1.46237 42.5845 1.64852C42.7718 1.83467 42.8777 2.08745 42.879 2.3515C42.879 2.88376 42.4302 3.34465 41.8798 3.34465ZM41.0979 11.6213V4.42408H42.662V11.6213H41.0979ZM44.4721 11.6213V1.11279H46.0358V11.6209H44.4721V11.6213ZM56.187 4.42408H57.8379L55.5645 11.6213H54.0294L52.5233 6.77045L51.0028 11.6213H49.4681L47.1943 4.42408H48.8451L50.25 9.38981L51.7705 4.42408H53.262L54.7677 9.38981L56.187 4.42408ZM59.7782 3.34465C59.2278 3.34465 58.779 2.88416 58.779 2.3515C58.7803 2.08745 58.8861 1.83467 59.0734 1.64852C59.2607 1.46237 59.5141 1.35803 59.7782 1.35836C60.0422 1.35803 60.2957 1.46237 60.4829 1.64852C60.6702 1.83467 60.7761 2.08745 60.7774 2.3515C60.7774 2.88376 60.3286 3.34465 59.7782 3.34465ZM58.9963 11.6213V4.42408H60.56V11.6213H58.9963ZM66.1786 4.23699C67.8004 4.23699 68.9588 5.33094 68.9588 7.20231V11.6209H67.3951V7.36037C67.3951 6.26642 66.758 5.69102 65.7733 5.69102C64.7451 5.69102 63.9342 6.29545 63.9342 7.7636V11.6213H62.3701V4.42408H63.9342V5.34545C64.4121 4.59707 65.1939 4.23699 66.1786 4.23699ZM76.3729 1.54545H77.937V11.6209H76.3729V10.5846C75.8229 11.3475 74.9685 11.808 73.8391 11.808C71.8697 11.808 70.2334 10.1527 70.2334 8.02207C70.2334 5.87771 71.8697 4.23658 73.8391 4.23658C74.9685 4.23658 75.8229 4.69707 76.3729 5.44586V1.54545ZM74.085 10.3257C75.3883 10.3257 76.3729 9.36118 76.3729 8.02247C76.3729 6.68376 75.3883 5.71965 74.085 5.71965C72.7818 5.71965 71.7971 6.68416 71.7971 8.02247C71.7971 9.36118 72.7818 10.3257 74.085 10.3257ZM83.179 11.8084C80.9923 11.8084 79.356 10.1531 79.356 8.02247C79.356 5.87812 80.9923 4.23699 83.179 4.23699C84.5979 4.23699 85.829 4.97086 86.408 6.09384L85.0612 6.87126C84.7427 6.19465 84.0334 5.76279 83.1645 5.76279C81.8903 5.76279 80.9201 6.72731 80.9201 8.02247C80.9201 9.31804 81.8903 10.2826 83.1645 10.2826C84.0334 10.2826 84.7427 9.83618 85.0903 9.17408L86.437 9.93699C85.829 11.0741 84.5979 11.808 83.179 11.808V11.8084ZM89.0145 6.41037C89.0145 7.72045 92.91 6.92852 92.91 9.59183C92.91 11.0313 91.65 11.8084 90.0862 11.8084C88.6383 11.8084 87.5955 11.1604 87.1322 10.1241L88.479 9.34707C88.7104 9.99465 89.2899 10.3834 90.0862 10.3834C90.7814 10.3834 91.3169 10.1531 91.3169 9.57691C91.3169 8.29626 87.4217 9.01602 87.4217 6.43941C87.4217 5.08618 88.5947 4.23699 90.0717 4.23699C91.2592 4.23699 92.2439 4.78416 92.7508 5.73416L91.433 6.46804C91.1721 5.90674 90.6653 5.64747 90.0717 5.64747C89.5068 5.64747 89.0145 5.89223 89.0145 6.41037ZM95.6903 6.41037C95.6903 7.72045 99.5854 6.92852 99.5854 9.59183C99.5854 11.0313 98.3258 11.8084 96.7616 11.8084C95.3137 11.8084 94.2713 11.1604 93.8076 10.1241L95.1544 9.34707C95.3862 9.99465 95.9653 10.3834 96.7616 10.3834C97.4568 10.3834 97.9927 10.1531 97.9927 9.57691C97.9927 8.29626 94.0975 9.01602 94.0975 6.43941C94.0975 5.08618 95.2701 4.23699 96.7475 4.23699C97.9346 4.23699 98.9193 4.78416 99.4262 5.73416L98.1084 6.46804C97.8479 5.90674 97.3411 5.64747 96.7475 5.64747C96.1826 5.64747 95.6903 5.89223 95.6903 6.41037Z" fill="currentColor"/>
</g>
<defs>
<clipPath id="clip0_17_459">
<rect width="100" height="12.5" fill="white" transform="translate(0 0.75)"/>
</clipPath>
</defs>
</svg>
