<svg viewBox="0 0 100 120" fill="none" xmlns="http://www.w3.org/2000/svg">
<g clip-path="url(#clip0_17_563)">
<path d="M11.1605 95.9311H19.747V100.288H11.1605V110.174C11.1432 110.883 11.2405 111.591 11.4487 112.269C11.6063 112.773 11.8866 113.229 12.2643 113.597C12.6284 113.94 13.0712 114.189 13.5538 114.32C14.0359 114.449 14.5316 114.519 15.03 114.53L15.2437 114.53C15.6931 114.53 16.1571 114.53 16.6357 114.467L16.9196 114.432L17.4699 114.369C17.6501 114.348 17.8275 114.325 18.0033 114.296L18.261 114.255L18.746 114.183C18.9024 114.159 19.0544 114.135 19.2048 114.105L19.5634 114.034C19.6203 114.022 19.6758 114.01 19.7299 113.999L20.0388 113.93C20.0877 113.918 20.1353 113.907 20.1817 113.895L20.758 117.954C20.2941 118.216 19.8027 118.426 19.2928 118.579C18.715 118.762 18.126 118.907 17.5296 119.014C16.9044 119.131 16.2548 119.219 15.5759 119.283C14.8969 119.346 14.2425 119.376 13.588 119.376C12.4298 119.392 11.2762 119.227 10.169 118.887C9.18243 118.58 8.28218 118.044 7.54127 117.324C6.77803 116.577 6.20231 115.66 5.86109 114.648C5.43656 113.39 5.23491 112.067 5.26521 110.74V100.288H0V95.9311H5.25056V90.2996H11.1605V95.9311ZM32.2067 107.365V118.931H26.2333V87.9796H36.6318C38.2042 87.9601 39.7715 88.164 41.2865 88.5852C42.58 88.9424 43.7924 89.5461 44.8569 90.3631C45.8359 91.1434 46.6117 92.1488 47.1183 93.2937C47.6744 94.5663 47.9477 95.9444 47.9193 97.3329C47.9323 98.3416 47.7991 99.3468 47.5237 100.317C47.0517 102.004 46.0351 103.488 44.6322 104.537C43.9182 105.078 43.1447 105.535 42.3269 105.9L48.9792 118.672V118.951H42.5564L36.7344 107.365H32.2067ZM32.2116 102.51H36.6318C37.4626 102.526 38.2897 102.394 39.0739 102.119C39.7301 101.887 40.3189 101.496 40.7883 100.981C41.1541 100.574 41.4347 100.097 41.6138 99.5797C41.7888 99.0491 41.8839 98.4957 41.8963 97.9379L41.897 97.7286C41.9116 96.9855 41.7857 96.2464 41.5258 95.5502C41.2924 94.9436 40.9093 94.406 40.4122 93.9872C39.9339 93.6012 39.3847 93.3125 38.7955 93.1374C38.1639 92.9533 37.5111 92.8535 36.854 92.8403L32.2116 92.8394V102.51ZM58.7135 118.931H52.7498V87.9796H63.334C64.8888 87.9575 66.4356 88.2054 67.9056 88.7122C69.1896 89.1554 70.3743 89.8456 71.393 90.7441C72.3408 91.6245 73.09 92.6968 73.5909 93.8895C74.0882 95.0957 74.3515 96.3846 74.3676 97.6876L74.3675 97.9483C74.3812 99.2715 74.1166 100.583 73.5909 101.797C73.0853 102.956 72.3356 103.992 71.393 104.835C70.3707 105.734 69.1805 106.421 67.891 106.857C66.4198 107.358 64.8734 107.603 63.3193 107.58H58.7086L58.7135 118.931ZM58.7135 102.735H63.3242C64.0797 102.75 64.831 102.619 65.5368 102.349C66.1284 102.117 66.6644 101.762 67.1095 101.309C67.5181 100.871 67.8323 100.354 68.0326 99.7897C68.2398 99.2131 68.3455 98.605 68.3452 97.9923C68.3497 97.3075 68.2442 96.6264 68.0326 95.9751C67.8394 95.3711 67.5254 94.8128 67.1095 94.334C66.6703 93.8578 66.134 93.4813 65.5368 93.2302C64.8345 92.946 64.0816 92.8081 63.3242 92.8248H58.7135V102.735ZM98.9645 113.446C98.4176 114.653 97.6336 115.738 96.6592 116.635C95.6571 117.534 94.4867 118.224 93.2158 118.667C91.8871 119.122 90.4946 119.361 89.0915 119.376L88.7907 119.376C87.5942 119.39 86.4023 119.225 85.2545 118.887C84.2049 118.574 83.2146 118.089 82.3239 117.451C81.5181 116.859 80.8052 116.149 80.209 115.346C79.5814 114.505 79.0567 113.591 78.6461 112.625C78.218 111.571 77.9021 110.474 77.7034 109.353C77.4777 108.104 77.3665 106.837 77.371 105.568V101.401C77.3685 100.208 77.4682 99.017 77.6692 97.8409C77.8347 96.8863 78.0898 95.9497 78.431 95.0436L78.5631 94.7052C78.9948 93.5716 79.5977 92.5108 80.3507 91.5598C81.0639 90.6602 81.9086 89.8731 82.8563 89.2251C83.7077 88.6756 84.6361 88.2559 85.611 87.9796C86.5625 87.7085 87.5448 87.5629 88.5331 87.5461L88.8297 87.5449C90.3729 87.5185 91.9087 87.7632 93.3672 88.2678C95.9219 89.1455 97.9673 91.0929 98.9694 93.6014C99.5313 94.9926 99.8756 96.4621 99.9902 97.9581H94.0412C94.0061 97.1302 93.8683 96.3099 93.6309 95.516C93.4393 94.8754 93.1166 94.2816 92.6834 93.7723C92.244 93.3094 91.7019 92.9564 91.1009 92.7417C90.3721 92.4918 89.6049 92.3728 88.8346 92.3901C88.3938 92.3885 87.9544 92.4393 87.5256 92.5415C87.1354 92.6367 86.7606 92.7863 86.412 92.9859C85.8145 93.3515 85.3123 93.8537 84.9468 94.4512C84.5192 95.1359 84.1903 95.8775 83.9699 96.654C83.7771 97.3613 83.6431 98.0834 83.5694 98.8128C83.4802 99.6565 83.4378 100.504 83.4424 101.353V105.558C83.4327 106.664 83.4996 107.768 83.6427 108.865C83.752 109.733 83.9618 110.585 84.2679 111.404C84.4518 111.871 84.6912 112.314 84.9809 112.723C85.2416 113.098 85.5616 113.428 85.9285 113.7C86.3146 113.986 86.7501 114.198 87.2131 114.325C87.7283 114.467 88.261 114.537 88.7955 114.53C89.5083 114.539 90.2182 114.438 90.9007 114.232C91.4987 114.048 92.0456 113.727 92.4978 113.295C92.962 112.833 93.3175 112.274 93.5381 111.658C93.8206 110.886 93.9853 110.076 94.0266 109.255H100C99.9138 110.704 99.5629 112.124 98.9645 113.446Z" fill="#398CCB"/>
<path d="M72.8045 36.5242L87.8382 45.2035V62.5719L72.8045 71.2512L66.1307 67.3917L49.9023 76.7606L33.7711 67.4454L27.1906 71.2512L12.1569 62.5573V45.2035L27.1906 36.5242L42.2243 45.2035V62.5573L37.6761 65.1874L49.9023 72.2476L62.2257 65.1337L57.7708 62.5573V45.2035L72.8045 36.5242ZM61.6782 49.7264V60.3203L70.8508 65.6148V55.0209L61.6782 49.7264ZM83.9308 49.7117L74.7582 55.0062V65.6148L83.9308 60.3056V49.7117ZM16.0643 49.7117V60.3056L25.2369 65.6002V55.0062L16.0643 49.7117ZM38.3169 49.7117L29.1443 55.0062V65.6002L38.3169 60.3056V49.7117ZM72.8045 41.0471L63.6319 46.3416L72.8045 51.641L81.9771 46.3416L72.8045 41.0471ZM27.1906 41.0324L18.018 46.3416L27.1906 51.6263L36.3632 46.3416L27.1906 41.0324ZM34.6683 14.1105V18.6186L20.758 26.6532V40.2363L16.8506 42.4928V24.3967L34.6683 14.1105ZM49.702 0.429688L64.7455 9.10899V13.8819L82.954 24.3967V42.3805L79.0466 40.1239V26.6532L64.7455 18.3949V26.4676L49.7118 35.1469L34.6781 26.4676V9.10899L49.702 0.429688ZM38.5855 13.6171V24.2111L47.7483 29.5056V18.9165L38.5855 13.6171ZM60.8283 13.6171L51.6655 18.9165V29.5007L60.8283 24.2111V13.6171ZM49.702 4.94273L40.5392 10.2372L49.702 15.5318L58.8746 10.2372L49.702 4.94273Z" fill="#398CCB"/>
</g>
<defs>
<clipPath id="clip0_17_563">
<rect width="100" height="119.141" fill="white" transform="translate(0 0.429688)"/>
</clipPath>
</defs>
</svg>
