<svg viewBox="0 0 100 100" fill="none" xmlns="http://www.w3.org/2000/svg">
<g clip-path="url(#clip0_17_454)">
<path d="M0 50V100H50H100V50V0H50H0V50Z" fill="#007ACC"/>
<path d="M22.1137 50.3318L22.082 54.427L28.5899 54.427H35.0978V72.9191V91.4111H39.701H44.3042V72.9191L44.3042 54.427H50.8121H57.3201V50.4111C57.3201 48.1889 57.2724 46.3318 57.209 46.2841C57.1613 46.2207 49.2407 46.1889 39.6375 46.2048L22.1613 46.2524L22.1137 50.3318Z" fill="white"/>
<path d="M80.6901 46.1362C83.2298 46.7712 85.1663 47.8981 86.944 49.7394C87.8647 50.7235 89.2297 52.5172 89.3409 52.9458C89.3726 53.0727 85.0234 55.9934 82.3885 57.6283C82.2932 57.6918 81.9123 57.2791 81.4837 56.6442C80.198 54.7711 78.8488 53.9616 76.7853 53.8188C73.7536 53.6124 71.8012 55.1997 71.8171 57.8505C71.8171 58.6283 71.9282 59.0886 72.2456 59.7235C72.9123 61.1045 74.1504 61.9299 78.0393 63.6124C85.198 66.6918 88.2615 68.7235 90.1663 71.6124C92.2932 74.8346 92.7694 79.9775 91.325 83.8029C89.7377 87.9616 85.8012 90.787 80.2615 91.7235C78.5472 92.0251 74.4837 91.9775 72.6424 91.6442C68.6266 90.9299 64.8171 88.9458 62.4678 86.3426C61.5472 85.3267 59.7536 82.6759 59.8647 82.4854C59.9123 82.4219 60.325 82.168 60.7853 81.8981C61.2298 81.6442 62.9123 80.6759 64.4996 79.7553L67.3726 78.0886L67.9758 78.9775C68.8171 80.2632 70.6583 82.0251 71.7694 82.6124C74.9599 84.295 79.3409 84.0569 81.4996 82.1204C82.4202 81.2791 82.8012 80.4061 82.8012 79.1204C82.8012 77.9616 82.6583 77.4537 82.0551 76.5807C81.2774 75.4696 79.6901 74.5331 75.1821 72.5807C70.0234 70.3584 67.8012 68.9775 65.7694 66.787C64.5948 65.5172 63.4837 63.4854 63.0234 61.787C62.6425 60.3743 62.5472 56.8346 62.8488 55.4061C63.9123 50.4219 67.6742 46.9458 73.1028 45.914C74.8647 45.5807 78.9599 45.7077 80.6901 46.1362Z" fill="white"/>
</g>
<defs>
<clipPath id="clip0_17_454">
<rect width="100" height="100" fill="white"/>
</clipPath>
</defs>
</svg>
